<svg width="220" height="71" viewBox="0 0 220 71" fill="none" xmlns="http://www.w3.org/2000/svg">
<path d="M60.0359 0.617394C63.321 0.208815 66.6519 0.365745 69.8841 1.08138L119.099 11.9781C120.691 12.3306 122.31 12.5481 123.939 12.6285L198.174 16.2928C206.931 16.7251 214.667 22.1372 218.074 30.2164V30.2164C224.017 44.3056 214.691 60.1381 199.488 61.7727L113.661 71H33.185C23.0702 71 13.6862 65.7298 8.42201 57.0928L4.86113 51.2505C1.09087 45.0645 -0.227626 37.6915 1.16512 30.5823L1.67405 27.9845C4.0832 15.6871 14.1185 6.32818 26.5539 4.78158L60.0359 0.617394Z" fill="#17FF81"/>
</svg>
